<svg version="1.1" id="Layer_1" xmlns="http://www.w3.org/2000/svg" xmlns:xlink="http://www.w3.org/1999/xlink" x="0px" y="0px"
	 width="100%" viewBox="0 0 512 512" enable-background="new 0 0 512 512" xml:space="preserve">
<path fill="#000000" opacity="0.000000" stroke="none" 
	d="
M356.000000,513.000000 
	C237.362167,513.000000 119.224319,513.000000 1.043242,513.000000 
	C1.043242,342.403809 1.043242,171.807602 1.043242,1.105696 
	C171.554504,1.105696 342.109100,1.105696 512.831848,1.105696 
	C512.831848,171.666534 512.831848,342.333252 512.831848,513.000000 
	C460.807526,513.000000 408.653778,513.000000 356.000000,513.000000 
M321.000000,301.501068 
	C321.000000,309.001373 321.265686,316.514648 320.900787,323.997131 
	C320.680237,328.519806 322.376068,331.847412 325.789185,334.169525 
	C331.422516,338.002228 337.213257,341.640900 343.151245,344.981659 
	C363.906525,356.658722 386.772461,360.043671 410.047180,360.875092 
	C427.691284,361.505341 445.376068,361.024780 463.042603,360.987854 
	C470.200134,360.972900 471.297821,360.048920 470.950500,353.141144 
	C470.234772,338.905701 461.477661,326.730591 445.164307,322.267120 
	C430.490479,318.252197 415.194031,316.392212 400.091583,314.116943 
	C392.791931,313.017212 391.517517,312.679871 389.011383,305.715546 
	C388.739380,304.959747 388.364502,304.241150 388.088348,303.486633 
	C386.876526,300.175629 384.956848,299.239349 381.620483,301.009949 
	C378.039612,302.910339 374.133087,304.202850 370.577301,306.143005 
	C367.597961,307.768585 366.154907,307.163239 365.423615,303.942505 
	C365.156494,302.766144 364.478516,301.683105 364.061707,300.726715 
	C370.542450,297.765411 376.702820,294.950500 382.853180,292.140167 
	C381.770966,289.432281 380.711334,287.263092 380.034271,284.980408 
	C378.850525,280.989655 376.420990,280.471252 372.996674,282.035980 
	C368.306458,284.179108 363.604492,286.296478 358.701691,288.518158 
	C357.523804,285.950836 356.596527,283.929718 355.543182,281.633820 
	C360.839081,279.296356 365.672272,277.032227 370.612762,275.033356 
	C373.416626,273.898987 374.472168,272.380157 373.013947,269.523407 
	C372.056976,267.648621 371.548950,265.400513 370.182892,263.929932 
	C369.287415,262.965881 367.017548,262.447845 365.714569,262.854828 
	C362.328033,263.912567 358.887054,265.205444 355.924164,267.113251 
	C351.580048,269.910400 349.171844,269.147461 348.019135,264.155365 
	C347.878754,263.547241 347.575287,262.976746 347.425171,262.589478 
	C353.593781,259.757751 359.745392,256.933838 366.083160,254.024475 
	C364.739044,251.009521 363.525330,248.563004 362.549103,246.025162 
	C361.411713,243.068405 359.831390,242.455566 356.874420,243.901535 
	C352.245300,246.165207 347.407745,248.002609 342.303802,250.171280 
	C341.112457,247.951050 339.982391,245.845016 338.733368,243.517319 
	C343.920288,241.253891 348.815796,239.116577 353.712219,236.981400 
	C356.001556,235.983093 357.794861,234.852692 356.067688,231.889542 
	C355.180481,230.367493 354.725555,228.599976 353.981354,226.986694 
	C352.604523,224.001801 350.624695,223.481064 347.605865,225.004929 
	C343.136414,227.261063 338.468414,229.123947 333.916382,231.140335 
	C330.179352,224.710220 330.171570,224.693375 335.984192,222.007462 
	C340.229340,220.045853 344.498352,218.135895 349.127777,216.034470 
	C338.575439,192.310059 328.221039,169.030640 317.849792,145.713272 
	C305.616180,151.990936 300.940948,164.138687 304.760162,178.635620 
	C305.656036,182.036209 306.639465,183.363785 310.201416,184.224884 
	C321.541779,186.966476 329.984985,193.629578 334.668488,204.591293 
	C328.984253,208.476074 329.186279,208.321487 324.769592,202.549484 
	C320.831757,197.403198 315.944427,192.945709 309.252502,192.123627 
	C302.236084,191.261703 295.107056,191.133682 288.023010,191.052582 
	C279.736481,190.957718 272.748535,187.914459 266.873291,182.324722 
	C257.333771,173.248703 253.454575,161.326950 251.161789,148.879837 
	C250.525131,145.423462 249.183228,144.947144 246.324860,144.966019 
	C234.158752,145.046402 221.924606,145.795135 209.844269,144.774048 
	C198.013016,143.774002 188.886597,147.058319 181.942474,156.579636 
	C179.916855,159.357040 177.261429,160.100815 173.793640,160.084793 
	C142.461044,159.939926 111.127464,159.984863 79.794289,160.040588 
	C78.059448,160.043671 74.979416,160.325531 74.823715,161.004578 
	C74.138725,163.992035 73.920212,167.232971 74.397697,170.244919 
	C74.529076,171.073669 77.651947,171.922256 79.404427,171.927032 
	C115.070755,172.024261 150.737686,171.947998 186.403442,172.120682 
	C188.704147,172.131836 191.517090,173.322617 193.202789,174.909164 
	C200.601593,181.872757 207.683731,189.173553 214.849701,196.382874 
	C215.696625,197.234924 216.352966,198.276398 217.265472,199.444962 
	C210.513794,200.960327 204.768692,200.511963 201.117340,194.558090 
	C192.518829,180.537384 178.993301,181.023026 165.237198,182.063904 
	C164.565506,182.114731 163.939743,182.772217 162.382553,183.674500 
	C168.034851,189.221313 173.284637,194.373154 178.575745,199.565536 
	C171.999161,201.178070 166.894562,199.719254 162.682556,194.348755 
	C159.620331,190.444244 155.686630,187.226791 152.174850,183.670059 
	C149.735840,181.199799 147.256317,181.143723 144.902084,183.632462 
	C141.615829,187.106537 138.548706,190.790695 135.209351,194.210709 
	C133.166351,196.303040 131.077545,198.803558 128.497238,199.817001 
	C124.131569,201.531677 123.130089,203.108978 123.975266,210.008377 
	C124.510811,214.380188 127.791962,212.938370 130.104263,212.944336 
	C162.103989,213.026688 194.104187,213.052170 226.103653,212.929611 
	C229.827057,212.915359 232.543442,213.793991 235.227249,216.576279 
	C245.176270,226.890488 255.355774,236.986252 265.599701,247.009750 
	C268.624573,249.969528 272.187714,252.372665 275.434540,255.113388 
	C285.573212,263.671661 297.664246,268.467926 309.875946,273.012573 
	C316.512848,275.482513 321.860992,281.087799 321.065613,289.008575 
	C320.684540,292.803619 321.000000,296.668640 321.000000,301.501068 
M299.965454,376.477081 
	C305.988617,380.319794 311.829529,384.491669 318.068054,387.945404 
	C339.473358,399.795776 362.930389,405.442993 386.920593,407.682098 
	C404.682129,409.339905 422.872131,409.323914 439.878204,401.902893 
	C444.129395,400.047821 448.032654,397.395386 452.095825,395.109406 
	C451.876953,394.514252 451.658081,393.919098 451.439209,393.323944 
	C449.875458,393.215973 448.312134,393.022003 446.747955,393.014740 
	C439.564392,392.981293 432.380371,392.960999 425.196960,393.008026 
	C409.014587,393.113983 392.921814,392.714081 376.834839,390.165680 
	C360.503387,387.578461 344.873413,383.218353 329.829254,376.428467 
	C316.643768,370.477417 305.006348,362.179474 293.826660,353.190552 
	C291.395264,351.235626 288.698608,349.312531 288.836609,345.169098 
	C289.027466,339.438599 288.246033,333.681244 288.020569,327.929932 
	C287.778625,321.757721 286.438324,316.553497 281.544067,311.794647 
	C251.836777,282.909241 222.518341,253.624161 192.957001,224.587646 
	C191.516281,223.172470 189.025131,222.143829 187.004623,222.112061 
	C173.343948,221.897369 159.678223,221.983643 146.014282,222.022659 
	C144.466202,222.027069 142.919022,222.343323 139.966858,222.670746 
	C143.249603,225.440659 145.583817,227.158081 147.626144,229.171555 
	C175.592148,256.742798 203.550262,284.322174 231.440964,311.969574 
	C247.535553,327.923706 263.339722,344.174774 279.616669,359.938934 
	C285.697876,365.828552 292.750641,370.714935 299.965454,376.477081 
M261.013428,253.518997 
	C253.945663,246.449387 246.328125,239.837265 239.960388,232.185120 
	C233.210144,224.073349 225.574478,220.173157 215.019958,221.910690 
	C211.569382,222.478760 207.946487,222.000000 203.096115,222.000000 
	C204.921738,224.159592 205.582275,225.065521 206.365265,225.849121 
	C231.330002,250.833298 256.302307,275.809906 281.298553,300.762543 
	C282.206268,301.668640 283.543457,302.166473 284.379272,303.118927 
	C288.107269,307.367096 294.244690,309.916870 294.911621,316.338715 
	C295.626831,323.225647 295.939331,330.184174 295.903839,337.108795 
	C295.880157,341.728729 296.679016,345.034546 300.610352,348.422455 
	C312.488922,358.659119 325.620697,366.824890 339.921448,372.820007 
	C363.285339,382.614502 388.167175,385.135803 413.214050,385.931030 
	C425.696472,386.327362 438.201935,386.000000 450.696960,386.000000 
	C463.998932,386.000000 463.794739,385.929779 468.120941,373.351379 
	C469.740204,368.643402 468.163147,367.783966 464.013947,367.974243 
	C454.924805,368.391022 445.829163,368.926849 436.736176,368.926819 
	C427.643188,368.926819 418.542725,368.467957 409.459351,367.962036 
	C400.432037,367.459198 391.325073,367.259369 382.423279,365.850769 
	C360.131165,362.323456 339.840881,353.652863 321.267853,340.783722 
	C315.893799,337.060028 313.456268,332.862244 313.821625,326.028473 
	C314.461121,314.067413 313.878601,302.045685 314.059540,290.053162 
	C314.132111,285.241394 311.806549,282.330963 307.830750,280.407623 
	C305.798279,279.424408 303.592621,278.801788 301.472961,277.995880 
	C286.724701,272.388641 273.149689,264.825012 261.013428,253.518997 
M155.507980,135.000000 
	C164.838181,135.000000 174.168381,135.000015 183.498581,135.000000 
	C202.992050,134.999985 222.486496,134.898987 241.978210,135.083130 
	C245.986313,135.120987 247.624664,133.840546 246.987488,129.926239 
	C246.390945,126.261650 246.078873,122.489799 244.957642,118.983894 
	C242.409851,111.017349 237.075012,108.800323 229.831284,112.750015 
	C226.150818,114.756821 222.626617,117.262901 219.559662,120.111618 
	C217.304672,122.206139 215.197357,123.081429 212.152908,123.064285 
	C190.660797,122.943260 169.167679,122.999870 147.674881,123.000061 
	C139.498108,123.000130 139.216309,123.171967 140.145813,131.403137 
	C140.293518,132.711243 142.232208,134.660477 143.538239,134.832809 
	C147.141068,135.308243 150.847458,134.998947 155.507980,135.000000 
M80.991478,202.838135 
	C80.247292,201.906845 79.543457,200.211243 78.752296,200.169479 
	C73.958740,199.916336 69.135841,199.887924 64.347290,200.182831 
	C63.507069,200.234604 62.237736,202.102051 62.091274,203.249023 
	C60.891682,212.643311 61.269917,212.999969 70.744034,213.000000 
	C71.075584,213.000000 71.407166,213.002731 71.738693,212.999603 
	C82.256638,212.900711 80.909897,214.288330 80.991478,202.838135 
M93.000000,206.501556 
	C93.021065,212.995895 93.021065,212.996170 99.537125,212.999817 
	C101.526459,213.000931 103.515785,213.001022 105.505119,212.999832 
	C112.000626,212.995941 112.000626,212.995621 112.000000,206.459290 
	C111.999382,200.003860 111.999382,200.003510 105.423706,200.000183 
	C103.102814,199.999023 100.753090,200.233215 98.467155,199.950531 
	C93.982536,199.395935 92.344765,201.302902 93.000000,206.501556 
M89.452789,135.000000 
	C98.675392,134.999649 98.811081,134.984238 97.854408,126.562363 
	C97.707039,125.265076 95.754578,123.313347 94.465149,123.165840 
	C90.541008,122.716919 86.523315,122.849876 82.563042,123.095268 
	C81.360497,123.169785 79.534943,124.086983 79.172668,125.057785 
	C76.809761,131.389786 79.401611,134.998032 86.015320,134.999985 
	C86.843544,135.000229 87.671776,135.000000 89.452789,135.000000 
M120.406708,135.000000 
	C128.501266,134.997498 128.772751,134.834366 127.855865,126.602509 
	C127.710274,125.295349 125.778496,123.305000 124.506859,123.167984 
	C120.413521,122.726906 116.231445,122.839417 112.109360,123.118752 
	C111.035088,123.191551 109.395607,124.480980 109.136574,125.497299 
	C107.255844,132.876266 108.985825,134.999313 116.470085,135.000000 
	C117.463921,135.000092 118.457748,135.000000 120.406708,135.000000 
M61.998798,168.271927 
	C61.987610,159.098526 62.849491,160.026550 53.755852,160.001266 
	C51.269211,159.994370 48.705830,159.643127 46.326820,160.149994 
	C45.055355,160.420898 43.156536,162.210968 43.186497,163.268814 
	C43.268242,166.155289 43.818180,171.303772 44.903980,171.496719 
	C49.874935,172.380020 55.096928,171.964264 60.217319,171.746216 
	C60.843925,171.719513 61.401642,170.075272 61.998798,168.271927 
z"/>
<path fill="#ACACAC" opacity="1.000000" stroke="none" 
	d="
M321.000000,301.001526 
	C321.000000,296.668640 320.684540,292.803619 321.065613,289.008575 
	C321.860992,281.087799 316.512848,275.482513 309.875946,273.012573 
	C297.664246,268.467926 285.573212,263.671661 275.434540,255.113388 
	C272.187714,252.372665 268.624573,249.969528 265.599701,247.009750 
	C255.355774,236.986252 245.176270,226.890488 235.227249,216.576279 
	C232.543442,213.793991 229.827057,212.915359 226.103653,212.929611 
	C194.104187,213.052170 162.103989,213.026688 130.104263,212.944336 
	C127.791962,212.938370 124.510811,214.380188 123.975266,210.008377 
	C123.130089,203.108978 124.131569,201.531677 128.497238,199.817001 
	C131.077545,198.803558 133.166351,196.303040 135.209351,194.210709 
	C138.548706,190.790695 141.615829,187.106537 144.902084,183.632462 
	C147.256317,181.143723 149.735840,181.199799 152.174850,183.670059 
	C155.686630,187.226791 159.620331,190.444244 162.682556,194.348755 
	C166.894562,199.719254 171.999161,201.178070 178.575745,199.565536 
	C173.284637,194.373154 168.034851,189.221313 162.382553,183.674500 
	C163.939743,182.772217 164.565506,182.114731 165.237198,182.063904 
	C178.993301,181.023026 192.518829,180.537384 201.117340,194.558090 
	C204.768692,200.511963 210.513794,200.960327 217.265472,199.444962 
	C216.352966,198.276398 215.696625,197.234924 214.849701,196.382874 
	C207.683731,189.173553 200.601593,181.872757 193.202789,174.909164 
	C191.517090,173.322617 188.704147,172.131836 186.403442,172.120682 
	C150.737686,171.947998 115.070755,172.024261 79.404427,171.927032 
	C77.651947,171.922256 74.529076,171.073669 74.397697,170.244919 
	C73.920212,167.232971 74.138725,163.992035 74.823715,161.004578 
	C74.979416,160.325531 78.059448,160.043671 79.794289,160.040588 
	C111.127464,159.984863 142.461044,159.939926 173.793640,160.084793 
	C177.261429,160.100815 179.916855,159.357040 181.942474,156.579636 
	C188.886597,147.058319 198.013016,143.774002 209.844269,144.774048 
	C221.924606,145.795135 234.158752,145.046402 246.324860,144.966019 
	C249.183228,144.947144 250.525131,145.423462 251.161789,148.879837 
	C253.454575,161.326950 257.333771,173.248703 266.873291,182.324722 
	C272.748535,187.914459 279.736481,190.957718 288.023010,191.052582 
	C295.107056,191.133682 302.236084,191.261703 309.252502,192.123627 
	C315.944427,192.945709 320.831757,197.403198 324.769592,202.549484 
	C329.186279,208.321487 328.984253,208.476074 334.668488,204.591293 
	C329.984985,193.629578 321.541779,186.966476 310.201416,184.224884 
	C306.639465,183.363785 305.656036,182.036209 304.760162,178.635620 
	C300.940948,164.138687 305.616180,151.990936 317.849792,145.713272 
	C328.221039,169.030640 338.575439,192.310059 349.127777,216.034470 
	C344.498352,218.135895 340.229340,220.045853 335.984192,222.007462 
	C330.171570,224.693375 330.179352,224.710220 333.916382,231.140335 
	C338.468414,229.123947 343.136414,227.261063 347.605865,225.004929 
	C350.624695,223.481064 352.604523,224.001801 353.981354,226.986694 
	C354.725555,228.599976 355.180481,230.367493 356.067688,231.889542 
	C357.794861,234.852692 356.001556,235.983093 353.712219,236.981400 
	C348.815796,239.116577 343.920288,241.253891 338.733368,243.517319 
	C339.982391,245.845016 341.112457,247.951050 342.303802,250.171280 
	C347.407745,248.002609 352.245300,246.165207 356.874420,243.901535 
	C359.831390,242.455566 361.411713,243.068405 362.549103,246.025162 
	C363.525330,248.563004 364.739044,251.009521 366.083160,254.024475 
	C359.745392,256.933838 353.593781,259.757751 347.425171,262.589478 
	C347.575287,262.976746 347.878754,263.547241 348.019135,264.155365 
	C349.171844,269.147461 351.580048,269.910400 355.924164,267.113251 
	C358.887054,265.205444 362.328033,263.912567 365.714569,262.854828 
	C367.017548,262.447845 369.287415,262.965881 370.182892,263.929932 
	C371.548950,265.400513 372.056976,267.648621 373.013947,269.523407 
	C374.472168,272.380157 373.416626,273.898987 370.612762,275.033356 
	C365.672272,277.032227 360.839081,279.296356 355.543182,281.633820 
	C356.596527,283.929718 357.523804,285.950836 358.701691,288.518158 
	C363.604492,286.296478 368.306458,284.179108 372.996674,282.035980 
	C376.420990,280.471252 378.850525,280.989655 380.034271,284.980408 
	C380.711334,287.263092 381.770966,289.432281 382.853180,292.140167 
	C376.702820,294.950500 370.542450,297.765411 364.061707,300.726715 
	C364.478516,301.683105 365.156494,302.766144 365.423615,303.942505 
	C366.154907,307.163239 367.597961,307.768585 370.577301,306.143005 
	C374.133087,304.202850 378.039612,302.910339 381.620483,301.009949 
	C384.956848,299.239349 386.876526,300.175629 388.088348,303.486633 
	C388.364502,304.241150 388.739380,304.959747 389.011383,305.715546 
	C391.517517,312.679871 392.791931,313.017212 400.091583,314.116943 
	C415.194031,316.392212 430.490479,318.252197 445.164307,322.267120 
	C461.477661,326.730591 470.234772,338.905701 470.950500,353.141144 
	C471.297821,360.048920 470.200134,360.972900 463.042603,360.987854 
	C445.376068,361.024780 427.691284,361.505341 410.047180,360.875092 
	C386.772461,360.043671 363.906525,356.658722 343.151245,344.981659 
	C337.213257,341.640900 331.422516,338.002228 325.789185,334.169525 
	C322.376068,331.847412 320.680237,328.519806 320.900787,323.997131 
	C321.265686,316.514648 321.000000,309.001373 321.000000,301.001526 
z"/>
<path fill="#ACACAC" opacity="1.000000" stroke="none" 
	d="
M299.662903,376.267944 
	C292.750641,370.714935 285.697876,365.828552 279.616669,359.938934 
	C263.339722,344.174774 247.535553,327.923706 231.440964,311.969574 
	C203.550262,284.322174 175.592148,256.742798 147.626144,229.171555 
	C145.583817,227.158081 143.249603,225.440659 139.966858,222.670746 
	C142.919022,222.343323 144.466202,222.027069 146.014282,222.022659 
	C159.678223,221.983643 173.343948,221.897369 187.004623,222.112061 
	C189.025131,222.143829 191.516281,223.172470 192.957001,224.587646 
	C222.518341,253.624161 251.836777,282.909241 281.544067,311.794647 
	C286.438324,316.553497 287.778625,321.757721 288.020569,327.929932 
	C288.246033,333.681244 289.027466,339.438599 288.836609,345.169098 
	C288.698608,349.312531 291.395264,351.235626 293.826660,353.190552 
	C305.006348,362.179474 316.643768,370.477417 329.829254,376.428467 
	C344.873413,383.218353 360.503387,387.578461 376.834839,390.165680 
	C392.921814,392.714081 409.014587,393.113983 425.196960,393.008026 
	C432.380371,392.960999 439.564392,392.981293 446.747955,393.014740 
	C448.312134,393.022003 449.875458,393.215973 451.439209,393.323944 
	C451.658081,393.919098 451.876953,394.514252 452.095825,395.109406 
	C448.032654,397.395386 444.129395,400.047821 439.878204,401.902893 
	C422.872131,409.323914 404.682129,409.339905 386.920593,407.682098 
	C362.930389,405.442993 339.473358,399.795776 318.068054,387.945404 
	C311.829529,384.491669 305.988617,380.319794 299.662903,376.267944 
z"/>
<path fill="#ACACAC" opacity="1.000000" stroke="none" 
	d="
M261.268372,253.767487 
	C273.149689,264.825012 286.724701,272.388641 301.472961,277.995880 
	C303.592621,278.801788 305.798279,279.424408 307.830750,280.407623 
	C311.806549,282.330963 314.132111,285.241394 314.059540,290.053162 
	C313.878601,302.045685 314.461121,314.067413 313.821625,326.028473 
	C313.456268,332.862244 315.893799,337.060028 321.267853,340.783722 
	C339.840881,353.652863 360.131165,362.323456 382.423279,365.850769 
	C391.325073,367.259369 400.432037,367.459198 409.459351,367.962036 
	C418.542725,368.467957 427.643188,368.926819 436.736176,368.926819 
	C445.829163,368.926849 454.924805,368.391022 464.013947,367.974243 
	C468.163147,367.783966 469.740204,368.643402 468.120941,373.351379 
	C463.794739,385.929779 463.998932,386.000000 450.696960,386.000000 
	C438.201935,386.000000 425.696472,386.327362 413.214050,385.931030 
	C388.167175,385.135803 363.285339,382.614502 339.921448,372.820007 
	C325.620697,366.824890 312.488922,358.659119 300.610352,348.422455 
	C296.679016,345.034546 295.880157,341.728729 295.903839,337.108795 
	C295.939331,330.184174 295.626831,323.225647 294.911621,316.338715 
	C294.244690,309.916870 288.107269,307.367096 284.379272,303.118927 
	C283.543457,302.166473 282.206268,301.668640 281.298553,300.762543 
	C256.302307,275.809906 231.330002,250.833298 206.365265,225.849121 
	C205.582275,225.065521 204.921738,224.159592 203.096115,222.000000 
	C207.946487,222.000000 211.569382,222.478760 215.019958,221.910690 
	C225.574478,220.173157 233.210144,224.073349 239.960388,232.185120 
	C246.328125,239.837265 253.945663,246.449387 261.268372,253.767487 
z"/>
<path fill="#ACACAC" opacity="1.000000" stroke="none" 
	d="
M155.010437,135.000000 
	C150.847458,134.998947 147.141068,135.308243 143.538239,134.832809 
	C142.232208,134.660477 140.293518,132.711243 140.145813,131.403137 
	C139.216309,123.171967 139.498108,123.000130 147.674881,123.000061 
	C169.167679,122.999870 190.660797,122.943260 212.152908,123.064285 
	C215.197357,123.081429 217.304672,122.206139 219.559662,120.111618 
	C222.626617,117.262901 226.150818,114.756821 229.831284,112.750015 
	C237.075012,108.800323 242.409851,111.017349 244.957642,118.983894 
	C246.078873,122.489799 246.390945,126.261650 246.987488,129.926239 
	C247.624664,133.840546 245.986313,135.120987 241.978210,135.083130 
	C222.486496,134.898987 202.992050,134.999985 183.498581,135.000000 
	C174.168381,135.000015 164.838181,135.000000 155.010437,135.000000 
z"/>
<path fill="#ACACAC" opacity="1.000000" stroke="none" 
	d="
M80.995163,203.296722 
	C80.909897,214.288330 82.256638,212.900711 71.738693,212.999603 
	C71.407166,213.002731 71.075584,213.000000 70.744034,213.000000 
	C61.269917,212.999969 60.891682,212.643311 62.091274,203.249023 
	C62.237736,202.102051 63.507069,200.234604 64.347290,200.182831 
	C69.135841,199.887924 73.958740,199.916336 78.752296,200.169479 
	C79.543457,200.211243 80.247292,201.906845 80.995163,203.296722 
z"/>
<path fill="#ACACAC" opacity="1.000000" stroke="none" 
	d="
M93.000008,206.043365 
	C92.344765,201.302902 93.982536,199.395935 98.467155,199.950531 
	C100.753090,200.233215 103.102814,199.999023 105.423706,200.000183 
	C111.999382,200.003510 111.999382,200.003860 112.000000,206.459290 
	C112.000626,212.995621 112.000626,212.995941 105.505119,212.999832 
	C103.515785,213.001022 101.526459,213.000931 99.537125,212.999817 
	C93.021065,212.996170 93.021065,212.995895 93.000008,206.043365 
z"/>
<path fill="#ACACAC" opacity="1.000000" stroke="none" 
	d="
M88.976395,135.000000 
	C87.671776,135.000000 86.843544,135.000229 86.015320,134.999985 
	C79.401611,134.998032 76.809761,131.389786 79.172668,125.057785 
	C79.534943,124.086983 81.360497,123.169785 82.563042,123.095268 
	C86.523315,122.849876 90.541008,122.716919 94.465149,123.165840 
	C95.754578,123.313347 97.707039,125.265076 97.854408,126.562363 
	C98.811081,134.984238 98.675392,134.999649 88.976395,135.000000 
z"/>
<path fill="#ACACAC" opacity="1.000000" stroke="none" 
	d="
M119.929146,135.000000 
	C118.457748,135.000000 117.463921,135.000092 116.470085,135.000000 
	C108.985825,134.999313 107.255844,132.876266 109.136574,125.497299 
	C109.395607,124.480980 111.035088,123.191551 112.109360,123.118752 
	C116.231445,122.839417 120.413521,122.726906 124.506859,123.167984 
	C125.778496,123.305000 127.710274,125.295349 127.855865,126.602509 
	C128.772751,134.834366 128.501266,134.997498 119.929146,135.000000 
z"/>
<path fill="#ACACAC" opacity="1.000000" stroke="none" 
	d="
M61.995041,168.726288 
	C61.401642,170.075272 60.843925,171.719513 60.217319,171.746216 
	C55.096928,171.964264 49.874935,172.380020 44.903980,171.496719 
	C43.818180,171.303772 43.268242,166.155289 43.186497,163.268814 
	C43.156536,162.210968 45.055355,160.420898 46.326820,160.149994 
	C48.705830,159.643127 51.269211,159.994370 53.755852,160.001266 
	C62.849491,160.026550 61.987610,159.098526 61.995041,168.726288 
z"/>
</svg>